<svg width="1920" height="1080" viewBox="0 0 1920 1080" fill="none" xmlns="http://www.w3.org/2000/svg">
  <g opacity="0.6">
    <!-- Constellation 1 -->
    <path d="M400 250 L 550 350 L 600 500" stroke="white" stroke-width="0.5" />
    <circle cx="400" cy="250" r="2" fill="white"/>
    <circle cx="550" cy="350" r="3" fill="white"/>
    <circle cx="600" cy="500" r="2" fill="white"/>

    <!-- Constellation 2 -->
    <path d="M1500 150 L 1650 220 L 1550 350 L 1400 300" stroke="white" stroke-width="0.5" />
    <circle cx="1500" cy="150" r="2" fill="white"/>
    <circle cx="1650" cy="220" r="1.5" fill="white"/>
    <circle cx="1550" cy="350" r="3" fill="white"/>
    <circle cx="1400" cy="300" r="2.5" fill="white"/>

    <!-- Constellation 3 -->
    <path d="M200 800 L 350 850 L 450 750" stroke="white" stroke-width="0.5" />
    <circle cx="200" cy="800" r="1.5" fill="white"/>
    <circle cx="350" cy="850" r="2.5" fill="white"/>
    <circle cx="450" cy="750" r="2" fill="white"/>
    
    <!-- Random stars -->
    <circle cx="100" cy="100" r="1.5" fill="white" opacity="0.8"/>
    <circle cx="800" cy="200" r="1" fill="white" opacity="0.7"/>
    <circle cx="1200" cy="500" r="2" fill="white" opacity="0.9"/>
    <circle cx="1700" cy="900" r="1.5" fill="white" opacity="0.8"/>
    <circle cx="900" cy="950" r="1" fill="white" opacity="0.6"/>
  </g>
</svg>
